<?xml version="1.0" encoding="UTF-8"?>
<svg width="48px" height="46px" viewBox="0 0 48 46" version="1.1" xmlns="http://www.w3.org/2000/svg" xmlns:xlink="http://www.w3.org/1999/xlink">
    <!-- Generator: Sketch 49.1 (51147) - http://www.bohemiancoding.com/sketch -->
    <title>Key-line-graphic</title>
    <desc>Created with Sketch.</desc>
    <defs></defs>
    <g id="Symbols" stroke="none" stroke-width="1" fill="none" fill-rule="evenodd">
        <g id="Divider/Full" transform="translate(-616.000000, -8.000000)" stroke-width="0.5">
            <g id="MOF" transform="translate(617.000000, 7.800000)">
                <g id="DESIGN">
                    <g id="Key-line-graphic">
                        <g id="Page-1">
                            <path d="M35.8007327,33.2976015 C38.5642923,33.5982405 42.2511374,33.8527541 42.8625542,35.353753 C42.8625542,35.353753 42.4718278,28.0313387 39.8221732,25.0776629 C39.1800899,24.3624439 38.6773756,23.8267847 38.2841851,23.4259327" id="Stroke-1" stroke="#C5C5C5" stroke-linecap="round" stroke-linejoin="round"></path>
                            <path d="M18.9482217,35.7549345 C19.0774598,36.8506883 19.2836384,38.4148351 19.5541622,39.8806908 C20.0388051,42.5065462 20.3714836,46.0686387 20.3115193,46.1672043 C20.2518289,46.2657703 21.4393408,42.4955642 23.4663527,40.0558578 C24.5396861,38.7637961 25.9002456,37.40337 26.9007456,35.8740919" id="Stroke-3" stroke="#C5C5C5" stroke-linecap="round" stroke-linejoin="round"></path>
                            <path d="M10.4090609,31.7846045 C10.0010847,31.6868625 9.53451322,31.5333855 9.03371561,31.2942471 C7.35800131,30.4947394 5.56126316,29.205698 3.55971553,29.911582 C3.55971553,29.911582 4.91069175,26.8475346 8.04772752,24.5382422" id="Stroke-5" stroke="#C5C5C5" stroke-linecap="round" stroke-linejoin="round"></path>
                            <path d="M10.4075823,16.2103756 C10.4075823,16.2103756 9.58423706,10.7711424 9.31453466,10.1182477 C9.04483229,9.46535302 8.40603465,8.53131281 7.8236418,8.39101457 C7.8236418,8.39101457 11.6041299,7.97835656 15.5598562,9.39671398 C16.0132848,9.55925126 16.4415228,9.74677315 16.8440229,9.95186667 C16.8667491,9.96339803 16.8894753,9.97520395 16.9122015,9.98700987" id="Stroke-7" stroke="#C5C5C5" stroke-linecap="round" stroke-linejoin="round"></path>
                            <path d="M26.4099421,11.7029862 C28.2860849,9.5414051 29.6740254,8.52197789 29.6740254,8.52197789 C29.6740254,8.52197789 32.753835,5.78657429 40.2400614,7.7738122 C40.2400614,7.7738122 38.3236684,8.95275657 37.5548113,11.1137886 C37.0515494,12.5274785 36.5559541,14.2223141 35.9037398,15.7301768" id="Stroke-9" stroke="#C5C5C5" stroke-linecap="round" stroke-linejoin="round"></path>
                            <g id="Group-13" transform="translate(0.000000, 0.108175)" stroke="#C9C9C9">
                                <path d="M21.3481622,0.131128049 C21.5288765,0.802143444 22.1334479,2.91018608 22.8921741,4.08034466 C23.4107694,4.88067603 27.9226028,12.0611448 26.6392576,17.7093153 C26.6274837,17.7609319 26.6488409,17.8150194 26.6929242,17.8446715 C26.7145552,17.8594975 26.7397456,17.8669105 26.7649361,17.8669105 C26.7906742,17.8669105 26.8161385,17.859223 26.8380432,17.8438478 C26.8618647,17.8273745 29.2560552,16.1929413 33.1427815,15.832449 C34.0427933,15.7487094 35.0408291,15.7047804 36.0290077,15.7047804 C42.9862338,15.7047804 45.1531627,17.5572111 45.8026387,18.4937224 C45.3639959,18.6543378 44.0677815,19.1798384 42.4358766,20.308539 C42.1582338,20.5007283 41.8151506,20.7516727 41.417853,21.0424278 C38.9943649,22.8163355 34.4830791,26.1181485 30.87071,26.1505462 C30.8148529,26.1510953 30.7658409,26.1876113 30.7491385,26.2414243 C30.7324362,26.2949628 30.7524243,26.3531687 30.7981505,26.3852918 C30.8175909,26.3990196 32.7698529,27.7899214 34.4088767,30.4855143 C35.8921029,32.9243972 37.410103,36.9548824 36.3197934,42.3916446 C35.9674005,41.8944234 35.0556148,40.791531 33.3319838,39.7965393 C33.2030195,39.72186 33.0535195,39.6367476 32.8867695,39.5414765 C30.10021,37.9523452 22.6977694,33.7310433 22.4439479,29.5660255 C22.4401146,29.5017794 22.3894599,29.4501628 22.3253884,29.4452208 C22.3221027,29.4449462 22.318817,29.4446717 22.3152575,29.4446717 C22.255567,29.4446717 22.2029956,29.4864042 22.1898527,29.5459829 C22.1835551,29.5737131 21.5543408,32.3500256 19.3151265,35.0977842 C17.2714122,37.6053061 13.4345192,40.5902814 6.73111438,40.661117 C7.26805487,39.7578269 9.41170966,36.0730079 9.77806683,34.2365014 C9.99656683,33.1412966 10.5849835,31.2732161 11.2089954,29.6934196 C11.9718287,27.7621912 12.7023526,26.4638148 13.2130074,26.1307781 C13.2576383,26.1016752 13.2798169,26.0481367 13.2685907,25.9956965 C13.2576383,25.9435308 13.2154716,25.9034456 13.1629002,25.8952089 C13.1338764,25.8905415 10.2314954,25.4240704 7.18591203,23.9659024 C2.26637623,21.6104846 0.644328582,18.4668159 0.166530955,16.1723496 C0.727566679,16.3219827 2.36111432,16.7176182 3.95660244,16.7176182 C4.15237626,16.7176182 4.3440429,16.711578 4.52612627,16.6997721 C4.92616199,16.6739638 5.50006676,16.6130123 6.16432865,16.5427259 C7.85099536,16.3639898 10.1611264,16.1190857 12.4529121,16.1190857 C14.4509002,16.1190857 16.0748645,16.3126478 17.2796265,16.6940064 C17.2924955,16.6981247 17.3053645,16.7000466 17.3185074,16.7000466 C17.3510907,16.7000466 17.3828527,16.6876916 17.4072217,16.6643543 C17.4411741,16.6319567 17.4548645,16.5836348 17.4428169,16.5380585 C17.4362455,16.5119756 16.7607574,13.8869436 16.9275074,10.5466927 C17.0786503,7.51971039 17.9720907,3.27699318 21.3481622,0.131128049" id="Fill-11"></path>
                            </g>
                            <path d="M23.0000277,22.3075828 C23.0000277,22.3075828 23.9701349,19.5257792 27.187123,17.6574242" id="Stroke-14" stroke="#C5C5C5" stroke-linecap="round" stroke-linejoin="round"></path>
                            <path d="M17.31848,16.6791804 C17.31848,16.6791804 19.4405038,21.4152751 22.0416944,22.8566953" id="Stroke-16" stroke="#C5C5C5" stroke-linecap="round" stroke-linejoin="round"></path>
                            <path d="M13.1428847,26.1308605 C13.1428847,26.1308605 19.5774086,26.6319256 22.0416944,23.8177244" id="Stroke-18" stroke="#C5C5C5" stroke-linecap="round" stroke-linejoin="round"></path>
                            <path d="M22.7814182,23.817642 C22.7814182,23.817642 22.9637753,27.8560894 22.2160015,29.8068113" id="Stroke-20" stroke="#C5C5C5" stroke-linecap="round" stroke-linejoin="round"></path>
                            <path d="M23.0000277,23.1998905 C22.8551825,23.2531544 27.4464206,23.2526053 30.8077064,26.4149438" id="Stroke-22" stroke="#C5C5C5" stroke-linecap="round" stroke-linejoin="round"></path>
                            <path d="M23.5476468,22.3075828 C23.5476468,22.3075828 30.8720517,15.2377602 44.0833615,18.5324348" id="Stroke-24" stroke="#C5C5C5" stroke-linecap="round" stroke-linejoin="round"></path>
                            <path d="M20.7410991,1.64722748 C20.7410991,1.64722748 14.51823,12.9726714 22.2161111,22.3075828" id="Stroke-26" stroke="#C5C5C5" stroke-linecap="round" stroke-linejoin="round"></path>
                            <path d="M1.64288455,18.3951567 C1.64288455,18.3951567 12.1015871,27.3868728 21.4182301,23.4744467" id="Stroke-28" stroke="#C5C5C5" stroke-linecap="round" stroke-linejoin="round"></path>
                            <path d="M22.0416944,24.9914797 C22.0416944,24.9914797 21.7678848,34.7313615 8.48812273,40.0165686" id="Stroke-30" stroke="#C5C5C5" stroke-linecap="round" stroke-linejoin="round"></path>
                            <path d="M23.5476468,23.817642 C23.5476468,23.817642 34.157766,27.8492255 35.8006231,40.8997062" id="Stroke-32" stroke="#C5C5C5" stroke-linecap="round" stroke-linejoin="round"></path>
                        </g>
                    </g>
                </g>
            </g>
        </g>
    </g>
</svg>